{"title":"Niko.2.Little.Brother.Big.Trouble.2012.SRsink.DVDRip.XviD-zar.av","uid":11646664,"size":737873708,"categoryP":"video","categoryS":"movies","magnet":"?xt=urn:btih:7bf97ce92b852e396716117836e3b2a624cd580c&amp;dn=Niko.2.Little.Brother.Big.Trouble.2012.SRsink.DVDRip.XviD-zar.av&amp;tr=udp%3A%2F%2Ftracker.openbittorrent.com%3A80&amp;tr=udp%3A%2F%2Fopen.demonii.com%3A1337&amp;tr=udp%3A%2F%2Ftracker.coppersurfer.tk%3A6969&amp;tr=udp%3A%2F%2Fexodus.desync.com%3A6969","seeders":0,"leechers":1,"uploader":"stzar","files":1,"time":1417833838,"description":"General\nFormat                         : AVI\nFormat/Info                    : Audio Video Interleave\nFile size                      : 704 MiB\nDuration                       : 1h 13mn\nOverall bit rate               : 1 340 Kbps\nWriting application            : Lavf51.12.1\n\nVideo\nID                             : 0\nFormat                         : xvid\nCodec ID                       : xvid\nDuration                       : 1h 13mn\nBit rate                       : 1 200 Kbps\nWidth                          : 856 pixels\nHeight                         : 480 pixels\nDisplay aspect ratio           : 16:9\nFrame rate                     : 25.000 fps\nBits/(Pixel*Frame)             : 0.117\nStream size                    : 630 MiB (90%)\n\nAudio\nID                             : 1\nFormat                         : MPEG Audio\nFormat version                 : Version 1\nFormat profile                 : Layer 3\nMode                           : Joint stereo\nMode extension                 : MS Stereo\nCodec ID                       : 55\nCodec ID/Hint                  : MP3\nDuration                       : 1h 13mn\nBit rate mode                  : Constant\nBit rate                       : 128 Kbps\nChannel(s)                     : 2 channels\nSampling rate                  : 44.1 KHz\nCompression mode               : Lossy\nStream size                    : 67.1 MiB (10%)","torrent":{"xt":"urn:btih:7bf97ce92b852e396716117836e3b2a624cd580c","amp;dn":"Niko.2.Little.Brother.Big.Trouble.2012.SRsink.DVDRip.XviD-zar.av","amp;tr":["udp%3A%2F%2Ftracker.openbittorrent.com%3A80","udp%3A%2F%2Fopen.demonii.com%3A1337","udp%3A%2F%2Ftracker.coppersurfer.tk%3A6969","udp%3A%2F%2Fexodus.desync.com%3A6969"],"infoHash":"7bf97ce92b852e396716117836e3b2a624cd580c","infoHashBuffer":{"type":"Buffer","data":[123,249,124,233,43,133,46,57,103,22,17,120,54,227,178,166,36,205,88,12]},"announce":[],"urlList":[]}}